<?xml version="1.0" encoding="utf-8"?>
<!-- Generator: Adobe Illustrator 16.0.0, SVG Export Plug-In . SVG Version: 6.00 Build 0)  -->
<!DOCTYPE svg PUBLIC "-//W3C//DTD SVG 1.1//EN" "http://www.w3.org/Graphics/SVG/1.1/DTD/svg11.dtd">
<svg version="1.1" xmlns="http://www.w3.org/2000/svg" xmlns:xlink="http://www.w3.org/1999/xlink" x="0px" y="0px" width="64px"
	 height="64px" viewBox="0 0 64 64" style="enable-background:new 0 0 64 64;" xml:space="preserve">
<g id="Layer_1">
</g>
<g id="Layer_2">
</g>
<g id="Layer_3">
</g>
<g id="Layer_4">
	<path d="M50.271,32l8.515-14.431c0.183-0.309,0.185-0.692,0.007-1.004c-0.178-0.312-0.509-0.504-0.868-0.504H40.867L32.861,2.492
		c-0.359-0.609-1.363-0.609-1.723,0l-8.005,13.569H6.076c-0.359,0-0.69,0.192-0.868,0.504c-0.178,0.312-0.175,0.695,0.007,1.004
		L13.729,32L5.215,46.431c-0.182,0.309-0.185,0.692-0.007,1.004c0.178,0.312,0.509,0.504,0.868,0.504h17.057l8.005,13.569
		C31.318,61.813,31.646,62,32,62s0.682-0.187,0.861-0.492l8.006-13.569h17.057c0.359,0,0.69-0.192,0.868-0.504
		c0.178-0.312,0.176-0.695-0.007-1.004L50.271,32z M56.173,18.061l-7.063,11.972l-7.063-11.972H56.173z M32,4.968l6.545,11.093
		H25.456L32,4.968z M24.275,18.061h15.449L47.949,32l-8.225,13.939H24.275L16.051,32L24.275,18.061z M7.827,18.061h14.126
		L14.89,30.032L7.827,18.061z M7.827,45.939l7.063-11.972l7.063,11.972H7.827z M32,59.032l-6.544-11.093h13.089L32,59.032z
		 M42.047,45.939l7.063-11.972l7.063,11.972H42.047z"/>
</g>
<g id="Layer_5">
</g>
<g id="Layer_6">
</g>
<g id="Layer_7">
</g>
<g id="Layer_8">
</g>
<g id="Layer_9">
</g>
<g id="Layer_10">
</g>
<g id="Layer_11">
</g>
<g id="Layer_12">
</g>
<g id="Layer_13">
</g>
<g id="Layer_14">
</g>
<g id="Layer_15">
</g>
<g id="Layer_16">
</g>
<g id="Layer_17">
</g>
<g id="Layer_18">
</g>
</svg>
