<?xml version="1.0" encoding="utf-8"?>
<!-- Generator: Adobe Illustrator 25.0.0, SVG Export Plug-In . SVG Version: 6.00 Build 0)  -->
<svg version="1.1" id="Layer_1" xmlns="http://www.w3.org/2000/svg" xmlns:xlink="http://www.w3.org/1999/xlink" x="0px" y="0px"
	 viewBox="0 0 512 512" style="enable-background:new 0 0 512 512;" xml:space="preserve">
<g>
	<g>
		<path d="M256,401.9c-2.7,0-4.9-2.2-4.9-4.9V94.7c0-2.7,2.2-4.9,4.9-4.9c2.7,0,4.9,2.2,4.9,4.9v302.4
			C260.9,399.7,258.8,401.9,256,401.9z"/>
	</g>
	<g>
		<path d="M127.8,405.1h-72c-8.2,0-14.9-6.6-14.9-14.9V129c0-8.2,6.6-14.9,14.9-14.9h18.7c2.7,0,4.9,2.2,4.9,4.9
			c0,2.7-2.2,4.9-4.9,4.9H55.9c-2.8,0-5.1,2.2-5.1,5.1v261.2c0,2.8,2.2,5.1,5.1,5.1h72c2.7,0,4.9,2.2,4.9,4.9
			S130.5,405.1,127.8,405.1z"/>
	</g>
	<g>
		<path d="M256,434.4c-2.6,0-5.1-0.7-7.5-2.1c-0.4-0.2-0.8-0.4-1.2-0.7c-20.5-17.1-46.4-26.6-73-26.6h-9c-2.7,0-4.9-2.2-4.9-4.9
			s2.2-4.9,4.9-4.9h9c28.6,0,56.6,10,78.8,28.3c0.1,0,0.1,0.1,0.2,0.1c0.9,0.6,1.8,0.9,2.8,0.9c0.8,0,1.8-0.2,2.6-0.7
			c22.2-18.5,50.2-28.7,79.1-28.7h118.4c2.8,0,5.1-2.2,5.1-5.1V129c0-2.7-2.3-5.1-5.1-5.1h-18.7c-2.7,0-4.9-2.2-4.9-4.9
			c0-2.7,2.2-4.9,4.9-4.9h18.7c8.2,0,14.9,6.6,14.9,14.9v261.2c0,8.2-6.6,14.9-14.9,14.9H337.8c-26.7,0-52.7,9.5-73.1,26.6
			c-0.2,0.2-0.3,0.2-0.5,0.3C261.8,433.6,258.9,434.4,256,434.4z"/>
	</g>
	<g>
		<path d="M256,401.9c-0.9,0-1.9-0.2-2.7-0.8c-1.5-1-3.2-2.2-5.2-3.6c-8.2-5.6-21.9-15.2-28.6-17.2c-8.8-2.7-17.8-4-27-4H74.5
			c-2.7,0-4.9-2.2-4.9-4.9V94.7c0-2.1,1.3-3.9,3.3-4.6c22.8-8,56.4-12.4,92.5-12.4c34.8,0,67.7,4.3,90.8,12
			c22.7-7.6,55.6-12,90.7-12c35.5,0,69.2,4.6,92.4,12.4c2,0.7,3.3,2.6,3.3,4.6v276.7c0,2.7-2.2,4.9-4.9,4.9H319.6
			c-16.3,0-42.2,12.4-60.8,24.8C258,401.7,257,401.9,256,401.9z M79.4,366.6h113.1c10,0,20,1.5,29.8,4.4
			c8.2,2.5,21.6,11.7,31.4,18.5c0.8,0.6,1.7,1.2,2.5,1.7c10.6-6.8,40.8-24.6,63.5-24.6H433V98.2c-22.1-6.9-53.1-10.9-85.9-10.9
			c-34.9,0-67.4,4.3-89.2,12c-1,0.3-2.2,0.3-3.2,0c-22.2-7.6-54.7-12-89.2-12c-33.2,0-64.2,3.9-85.9,10.9v268.3H79.4z"/>
	</g>
	<g>
		<path d="M127.8,424.6c-0.7,0-1.6-0.2-2.2-0.6c-1.7-0.8-2.7-2.5-2.7-4.3v-48.3c0-2.7,2.2-4.9,4.9-4.9s4.9,2.2,4.9,4.9v38.8l11-7.8
			c1.7-1.2,4-1.2,5.6,0l11,7.7v-38.8c0-2.7,2.2-4.9,4.9-4.9c2.7,0,4.9,2.2,4.9,4.9v48.3c0,1.8-1,3.5-2.7,4.3
			c-1.7,0.8-3.6,0.7-5.1-0.3l-15.9-11.2l-15.9,11.2C129.8,424.3,128.8,424.6,127.8,424.6z"/>
	</g>
	<g>
		<g>
			<g>
				<g>
					<path d="M403.3,154.4c-0.5,0-1-0.1-1.5-0.2c-11.8-3.7-32.4-6.1-55-6.1c-21.9,0-43,2.3-55,6.1c-2.6,0.8-5.3-0.7-6.1-3.2
						s0.7-5.3,3.2-6.1c13.1-4.1,34.8-6.5,57.9-6.5c23.6,0,45.3,2.4,58,6.5c2.6,0.8,4,3.6,3.2,6.1
						C407.3,153.1,405.4,154.4,403.3,154.4z"/>
				</g>
				<g>
					<path d="M403.3,197.8c-0.5,0-1-0.1-1.5-0.2c-11.8-3.7-32.4-6.1-55-6.1c-21.9,0-43,2.3-55,6.1c-2.6,0.8-5.3-0.7-6.1-3.2
						c-0.8-2.6,0.7-5.3,3.2-6.1c13.1-4.1,34.8-6.5,57.9-6.5c23.6,0,45.3,2.4,58,6.5c2.6,0.8,4,3.6,3.2,6.1
						C407.3,196.5,405.4,197.8,403.3,197.8z"/>
				</g>
				<g>
					<path d="M403.3,241.1c-0.5,0-1-0.1-1.5-0.2c-11.8-3.7-32.4-6.1-55-6.1c-21.9,0-43,2.3-55,6.1c-2.6,0.8-5.3-0.7-6.1-3.2
						s0.7-5.3,3.2-6.1c13.1-4.1,34.8-6.5,57.9-6.5c23.6,0,45.3,2.4,58,6.5c2.6,0.8,4,3.6,3.2,6.1
						C407.3,239.8,405.4,241.1,403.3,241.1z"/>
				</g>
				<g>
					<path d="M403.3,284.5c-0.5,0-1-0.1-1.5-0.2c-11.8-3.7-32.4-6.1-55-6.1c-21.9,0-43,2.3-55,6.1c-2.6,0.8-5.3-0.7-6.1-3.2
						c-0.8-2.6,0.7-5.3,3.2-6.1c13.1-4.1,34.8-6.5,57.9-6.5c23.6,0,45.3,2.4,58,6.5c2.6,0.8,4,3.6,3.2,6.1
						C407.3,283.1,405.4,284.5,403.3,284.5z"/>
				</g>
				<g>
					<path d="M403.3,327.7c-0.5,0-1-0.1-1.5-0.2c-11.8-3.7-32.4-6.1-55-6.1c-21.9,0-43,2.3-55,6.1c-2.6,0.8-5.3-0.7-6.1-3.2
						c-0.8-2.6,0.7-5.3,3.2-6.1c13.1-4.1,34.8-6.5,57.9-6.5c23.6,0,45.3,2.4,58,6.5c2.6,0.8,4,3.6,3.2,6.1
						C407.3,326.4,405.4,327.7,403.3,327.7z"/>
				</g>
			</g>
		</g>
		<g>
			<path d="M179.3,327.7h-28.1c-2.7,0-4.9-2.2-4.9-4.9V226h-37.5c-2.7,0-4.9-2.2-4.9-4.9v-28.1c0-2.7,2.2-4.9,4.9-4.9h37.5v-44.7
				c0-2.7,2.2-4.9,4.9-4.9h28.1c2.7,0,4.9,2.2,4.9,4.9V188h37.6c2.7,0,4.9,2.2,4.9,4.9v28.1c0,2.7-2.2,4.9-4.9,4.9h-37.6v96.9
				C184.2,325.6,182,327.7,179.3,327.7z M156,318h18.3v-96.9c0-2.7,2.2-4.9,4.9-4.9h37.6v-18.3h-37.6c-2.7,0-4.9-2.2-4.9-4.9v-44.7
				H156v44.7c0,2.7-2.2,4.9-4.9,4.9h-37.5v18.3h37.5c2.7,0,4.9,2.2,4.9,4.9V318z"/>
		</g>
	</g>
</g>
</svg>
