<?xml version="1.0" encoding="utf-8"?>
<!-- Generator: Adobe Illustrator 26.0.2, SVG Export Plug-In . SVG Version: 6.00 Build 0)  -->
<svg version="1.1" xmlns="http://www.w3.org/2000/svg" xmlns:xlink="http://www.w3.org/1999/xlink" x="0px" y="0px"
	 viewBox="0 0 64 64" style="enable-background:new 0 0 64 64;" xml:space="preserve">
<g id="Layer_2">
</g>
<g id="Layer_3">
</g>
<g id="Layer_4">
</g>
<g id="Layer_5">
</g>
<g id="Layer_6">
</g>
<g id="Layer_7">
</g>
<g id="Layer_8">
</g>
<g id="Layer_9">
</g>
<g id="Layer_10">
</g>
<g id="Layer_11">
</g>
<g id="Layer_12">
</g>
<g id="Layer_13">
</g>
<g id="Layer_14">
	<path d="M54.7600098,49.2699585c0.2700195-0.1799927,0.4299927-0.4799805,0.4299927-0.789978V3.9400024
		C55.1900024,3.4299927,54.7600098,3,54.25,3H14.8800049C11.539978,3,8.8200073,5.7199707,8.8200073,9.0599976
		c0,0-0.0100098,44.5100098-0.0100098,44.539978c0,3.3500366,2.7299805,6.0800171,6.0700073,6.0800171h3.9099731v0.3699951
		c0,0.3499756,0.2000122,0.6699829,0.5100098,0.8300171c0.3099976,0.1699829,0.6799927,0.1599731,0.9700317-0.0400391
		l2.2999878-1.539978l2.3200073,1.539978C25.0499878,60.9500122,25.2299805,61,25.4099731,61
		c0.1600342,0,0.3099976-0.0400391,0.4500122-0.1199951c0.2999878-0.1600342,0.4899902-0.4800415,0.4899902-0.8300171v-0.3699951
		H54.25c0.4099731,0,0.7600098-0.2800293,0.8800049-0.6699829c0.1400146-0.3900146-0.0200195-0.8200073-0.3599854-1.0599976
		c-0.0500488-0.0400391-1.3800049-1.0300293-1.3800049-4.3500366C53.3900146,50.2999878,54.7299805,49.289978,54.7600098,49.2699585
		z M23.5,20.1900024h6.1400146c0.5199585,0,0.9400024-0.4200439,0.9400024-0.9400024v-6.1400146h2.8399658V19.25
		c0,0.5199585,0.4200439,0.9400024,0.9400024,0.9400024H40.5v2.8399658h-6.1400146
		c-0.5199585,0-0.9400024,0.4200439-0.9400024,0.9400024v15.5900269h-2.8399658V23.9699707
		c0-0.5199585-0.4200439-0.9400024-0.9400024-0.9400024H23.5V20.1900024z M52.3400269,57.789978H26.3499756v-3.2399902h20.8500366
		c0.5199585,0,0.9400024-0.4299927,0.9400024-0.9500122s-0.4200439-0.9400024-0.9400024-0.9400024H16.1699829
		c-0.5299683,0-0.9500122,0.4199829-0.9500122,0.9400024s0.4200439,0.9500122,0.9500122,0.9500122h2.6199951v3.2399902h-3.9099731
		c-2.2999878,0-4.1799927-1.8800049-4.1799927-4.1900024c0-1.1099854,0.4299927-2.1699829,1.2299805-2.9500122
		c0.789978-0.7999878,1.8400269-1.2299805,2.9500122-1.2299805h37.4699707C51.8800049,50.3399658,51.5,51.6799927,51.5,53.5999756
		S51.8800049,56.8599854,52.3400269,57.789978z"/>
</g>
<g id="Layer_15">
</g>
<g id="Layer_16">
</g>
<g id="Layer_17">
</g>
<g id="Layer_18">
</g>
<g id="Layer_19">
</g>
<g id="Layer_20">
</g>
<g id="Layer_21">
</g>
<g id="Layer_22">
</g>
<g id="Layer_23">
</g>
<g id="Layer_24">
</g>
<g id="Layer_25">
</g>
<g id="Layer_26">
</g>
<g id="Layer_27">
</g>
<g id="Layer_28">
</g>
<g id="Layer_29">
</g>
<g id="Layer_30">
</g>
<g id="Layer_31">
</g>
</svg>
